<svg xmlns="http://www.w3.org/2000/svg" width="4150" height="2530" viewBox="0 0 4150 2530" fill="none"><g clip-path="url(#clip0_1297_13)"><path d="M432.481 1740.51L516.664 1772.14L693.228 1200.27L937.578 1669.78L1207.26 1201.88L1419.84 1766.43L1511.05 1725.28L1229.51 1008.43L951.926 1498L679.466 978.845L432.481 1740.51Z" fill="#1D1D1B"></path><path d="M1965.34 952.338L2390.94 1694.53L2303.68 1753.1L2155.08 1478.66L1780.87 1496.09L1664.04 1757.94L1574.73 1705.22L1965.49 952.484L1965.34 952.338ZM1818.5 1425.36L2120.53 1410.86L1964.02 1121.92L1818.5 1425.5V1425.36Z" fill="#1D1D1B"></path><path d="M3284.31 1112.99L3440.67 1401.93L3138.78 1416.72L3284.31 1112.99ZM2894.87 1696.28L2984.47 1749L3101.01 1487.16L3475.37 1469.73L3624.26 1744.17L3711.37 1685.59L3285.48 943.551L2894.87 1696.28Z" fill="#1D1D1B"></path><mask id="mask0_1297_13" style="mask-type:luminance" maskUnits="userSpaceOnUse" x="0" y="0" width="4150" height="2530"><path d="M4150 0H0V2530H4150V0Z" fill="white"></path></mask><g mask="url(#mask0_1297_13)"><path d="M2625.19 1770.68C2618.16 1633.75 2606.89 1497.12 2591.37 1360.92L2585.51 1359.46C2580.24 1318.45 2570.58 1277.89 2557.11 1238.64H2551.84C2523.88 1157.8 2482.3 1081.94 2429.59 1014.14C2359.32 921.438 2241.17 859.198 2132.39 803.549L2192.56 821.415L2187.44 812.775L2243.81 831.959L2241.46 820.537C2266.06 826.248 2292.41 845.872 2312.03 861.249L2316.86 861.834L2316.57 855.391L2303.69 841.625L2305.15 830.056L2257.57 791.394C2306.76 801.059 2352.58 824.344 2389.33 858.466L2371.76 831.813C2497.38 908.551 2592.1 1027.61 2645.1 1164.25C2691.51 923.927 2818.59 701.915 3003.06 539.067C3093.98 467.602 3201.88 417.078 3305.97 399.944C3314.76 397.747 3314.76 404.776 3314.76 404.776C3235.26 418.25 3091.05 468.627 3056.35 557.08L2975.83 624.885L2975.25 637.772L2918.15 730.326L2915.95 744.678C2797.07 888.927 2727.67 1122.65 2710.54 1332.51L2709.67 1424.04C2709.67 1424.04 2714.79 1463.43 2716.55 1479.4C2718.01 1495.21 2729.58 1593.48 2729.58 1593.48L2733.53 1759.84L2625.63 1770.53L2625.19 1770.68Z" fill="#E21017"></path></g><path d="M421.326 1995.02H479.914C508.626 1995.02 526.668 2012.09 526.668 2036.92C526.668 2062.14 508.626 2079.22 479.914 2079.22H442.084V2125H421.326V1995.02ZM442.084 2060.2H479.914C496.21 2060.2 505.91 2050.89 505.91 2036.92C505.91 2023.54 496.21 2013.84 479.914 2013.84H442.084V2060.2ZM681.131 2125H655.329L608.963 2073.2H590.145V2125H569.387V1995.02H630.497C657.269 1995.02 675.117 2010.73 675.117 2034.21C675.117 2056.52 658.821 2071.65 634.183 2073.01L681.131 2125ZM590.145 2054.38H630.497C644.853 2054.38 654.359 2046.24 654.359 2034.21C654.359 2021.99 644.853 2013.84 630.497 2013.84H590.145V2054.38ZM779.709 1992.3C817.733 1992.3 847.609 2022.37 847.609 2060.2C847.609 2097.84 817.733 2127.72 779.709 2127.72C741.685 2127.72 712.003 2097.84 712.003 2060.2C712.003 2022.37 741.685 1992.3 779.709 1992.3ZM779.709 2108.12C806.093 2108.12 826.657 2087.56 826.657 2060.2C826.657 2032.66 806.093 2011.9 779.709 2011.9C753.519 2011.9 732.955 2032.66 732.955 2060.2C732.955 2087.56 753.519 2108.12 779.709 2108.12ZM913.171 2013.84V2052.44H980.295V2071.26H913.171V2125H892.413V1995.02H987.473V2013.84H913.171ZM1124.59 2106.18V2125H1027.78V1995.02H1124.39V2013.84H1048.54V2050.5H1118.57V2069.13H1048.54V2106.18H1124.59ZM1216.88 1992.3C1243.26 1992.3 1262.28 2006.66 1266.93 2028.97L1246.17 2033.24C1243.85 2019.46 1232.01 2010.35 1216.49 2010.35C1201.17 2010.35 1191.08 2018.69 1191.08 2030.13C1191.08 2039.25 1196.32 2044.1 1207.57 2046.43L1235.7 2052.44C1255.1 2056.71 1269.07 2067.58 1269.07 2087.95C1269.07 2112.39 1249.08 2127.72 1219.21 2127.72C1191.66 2127.72 1168.77 2114.33 1165.47 2089.11L1187.59 2084.45C1190.69 2101.14 1203.69 2109.29 1221.15 2109.29C1238.61 2109.29 1248.5 2100.94 1248.5 2089.11C1248.5 2079.22 1243.26 2074.56 1230.27 2071.84L1201.94 2066.02C1185.84 2062.34 1169.16 2053.8 1169.16 2030.72C1169.16 2007.82 1187.97 1992.3 1216.88 1992.3ZM1356.42 1992.3C1382.8 1992.3 1401.81 2006.66 1406.47 2028.97L1385.71 2033.24C1383.38 2019.46 1371.55 2010.35 1356.03 2010.35C1340.7 2010.35 1330.61 2018.69 1330.61 2030.13C1330.61 2039.25 1335.85 2044.1 1347.1 2046.43L1375.23 2052.44C1394.63 2056.71 1408.6 2067.58 1408.6 2087.95C1408.6 2112.39 1388.62 2127.72 1358.74 2127.72C1331.2 2127.72 1308.3 2114.33 1305.01 2089.11L1327.12 2084.45C1330.23 2101.14 1343.22 2109.29 1360.68 2109.29C1378.14 2109.29 1388.04 2100.94 1388.04 2089.11C1388.04 2079.22 1382.8 2074.56 1369.8 2071.84L1341.48 2066.02C1325.38 2062.34 1308.69 2053.8 1308.69 2030.72C1308.69 2007.82 1327.51 1992.3 1356.42 1992.3ZM1475.1 2125H1454.35V1995.02H1475.1V2125ZM1587.75 1992.3C1625.77 1992.3 1655.65 2022.37 1655.65 2060.2C1655.65 2097.84 1625.77 2127.72 1587.75 2127.72C1549.73 2127.72 1520.04 2097.84 1520.04 2060.2C1520.04 2022.37 1549.73 1992.3 1587.75 1992.3ZM1587.75 2108.12C1614.13 2108.12 1634.7 2087.56 1634.7 2060.2C1634.7 2032.66 1614.13 2011.9 1587.75 2011.9C1561.56 2011.9 1541 2032.66 1541 2060.2C1541 2087.56 1561.56 2108.12 1587.75 2108.12ZM1817.43 1995.02V2125H1799.78L1721.21 2031.69V2125H1700.45V1995.02H1718.11L1796.48 2089.89V1995.02H1817.43ZM1889.16 2125H1868.41V1995.02H1889.16V2125ZM1985.51 1992.3C2011.9 1992.3 2030.91 2006.66 2035.57 2028.97L2014.81 2033.24C2012.48 2019.46 2000.65 2010.35 1985.13 2010.35C1969.8 2010.35 1959.71 2018.69 1959.71 2030.13C1959.71 2039.25 1964.95 2044.1 1976.2 2046.43L2004.33 2052.44C2023.73 2056.71 2037.7 2067.58 2037.7 2087.95C2037.7 2112.39 2017.72 2127.72 1987.84 2127.72C1960.29 2127.72 1937.4 2114.33 1934.1 2089.11L1956.22 2084.45C1959.32 2101.14 1972.32 2109.29 1989.78 2109.29C2007.24 2109.29 2017.14 2100.94 2017.14 2089.11C2017.14 2079.22 2011.9 2074.56 1998.9 2071.84L1970.58 2066.02C1954.47 2062.34 1937.79 2053.8 1937.79 2030.72C1937.79 2007.82 1956.61 1992.3 1985.51 1992.3ZM2181.12 2013.84H2135.33V2125H2114.38V2013.84H2068.79V1995.02H2181.12V2013.84ZM2242.03 2125H2221.27V1995.02H2242.03V2125ZM2361.29 1995.02H2406.68C2450.92 1995.02 2478.46 2022.18 2478.46 2060.01C2478.46 2097.84 2450.92 2125 2406.68 2125H2361.29V1995.02ZM2382.05 2106.18H2406.68C2438.31 2106.18 2457.51 2086.98 2457.51 2060.01C2457.51 2033.04 2438.31 2013.84 2406.68 2013.84H2382.05V2106.18ZM2620.17 2106.18V2125H2523.37V1995.02H2619.98V2013.84H2544.13V2050.5H2614.16V2069.13H2544.13V2106.18H2620.17ZM2758.84 2106.18V2125H2667.07V1995.02H2687.83V2106.18H2758.84ZM2893.45 2106.18V2125H2801.68V1995.02H2822.44V2106.18H2893.45ZM3055.8 2125H3033.29L3020.49 2094.74H2957.25L2944.44 2125H2921.94L2979.17 1995.02H2998.57L3055.8 2125ZM3012.34 2075.72L2988.87 2020.43L2965.39 2075.72H3012.34ZM3252.57 2106.18V2125H3160.8V1995.02H3181.56V2106.18H3252.57ZM3402.94 1995.02V2067.58C3402.94 2103.47 3381.02 2127.72 3348.04 2127.72C3314.28 2127.72 3291.97 2103.47 3291.97 2067.58V1995.02H3312.73V2067.58C3312.73 2091.83 3326.7 2107.73 3348.04 2107.73C3368.41 2107.73 3382.18 2091.83 3382.18 2067.58V1995.02H3402.94ZM3514.26 2108.12C3534.63 2108.12 3551.31 2097.26 3557.13 2075.34L3577.31 2079.6C3570.13 2110.06 3544.91 2127.72 3514.26 2127.72C3476.43 2127.72 3446.55 2098.03 3446.55 2060.01C3446.55 2022.18 3476.43 1992.3 3514.26 1992.3C3544.91 1992.3 3569.94 2010.15 3577.31 2038.86L3557.13 2044.68C3551.31 2022.76 3534.63 2011.9 3514.26 2011.9C3488.07 2011.9 3467.51 2032.66 3467.51 2060.01C3467.51 2087.36 3488.07 2108.12 3514.26 2108.12ZM3719.03 2106.18V2125H3622.23V1995.02H3718.84V2013.84H3642.99V2050.5H3713.02V2069.13H3642.99V2106.18H3719.03Z" fill="#1D1D1B"></path></g><defs><clipPath id="clip0_1297_13"><rect width="4150" height="2530" fill="white"></rect></clipPath></defs></svg>